<?xml version="1.0" standalone="no"?>
<!DOCTYPE svg PUBLIC "-//W3C//DTD SVG 20010904//EN"
 "http://www.w3.org/TR/2001/REC-SVG-20010904/DTD/svg10.dtd">
<svg version="1.0" xmlns="http://www.w3.org/2000/svg"
 width="256.000000pt" height="256.000000pt" viewBox="0 0 256.000000 256.000000"
 preserveAspectRatio="xMidYMid meet">

<g transform="translate(0.000000,256.000000) scale(0.100000,-0.100000)"
fill="#000000" stroke="none">
<path d="M286 1933 c3 -16 40 -252 83 -527 43 -274 83 -501 89 -505 6 -3 397
-51 869 -105 472 -54 926 -106 1008 -116 83 -10 151 -17 153 -16 4 5 -117 819
-123 824 -3 3 -130 34 -283 68 -152 34 -479 108 -727 164 -845 191 -1065 240
-1070 240 -2 0 -2 -12 1 -27z m269 -235 c2 -2 12 -62 21 -133 9 -72 20 -133
23 -138 4 -4 24 48 44 114 20 67 39 124 41 127 9 9 76 -9 76 -20 0 -6 -16 -60
-36 -119 l-36 -108 86 -187 c47 -102 86 -190 86 -196 0 -5 -17 -8 -37 -6 l-38
3 -64 143 c-35 78 -67 142 -71 142 -19 0 -30 -80 -20 -146 16 -112 15 -114
-24 -114 -19 0 -38 5 -42 11 -8 13 -92 638 -86 643 3 4 71 -10 77 -16z m404
-79 l99 -21 7 -35 c3 -19 4 -37 1 -40 -3 -3 -35 0 -71 7 -36 7 -68 10 -71 8
-4 -5 15 -158 22 -169 2 -4 33 -12 69 -19 l65 -12 0 -40 0 -40 -42 7 c-24 3
-51 9 -62 12 -17 5 -18 0 -11 -73 9 -101 16 -114 63 -115 79 -3 95 -11 104
-53 5 -21 7 -41 5 -43 -4 -3 -219 26 -224 31 -3 2 -83 594 -83 611 0 9 26 6
129 -16z m223 -59 c5 -8 40 -91 78 -185 38 -93 70 -161 70 -150 0 21 -25 232
-35 292 -6 32 -5 33 27 26 18 -3 34 -7 36 -9 4 -3 72 -531 72 -560 0 -19 -4
-21 -32 -15 -31 6 -35 13 -103 179 -38 94 -73 172 -76 172 -4 0 13 -152 35
-298 5 -33 5 -33 -32 -30 l-37 3 -37 280 c-46 352 -46 324 -6 316 17 -4 35
-13 40 -21z m333 -56 c50 -10 93 -22 97 -28 4 -6 8 -24 8 -39 0 -27 -2 -28
-35 -21 -43 8 -43 21 -10 -236 14 -107 25 -208 25 -224 0 -26 -2 -28 -27 -21
-16 4 -29 8 -31 9 -1 2 -16 108 -32 237 -17 129 -32 239 -34 245 -3 6 -21 14
-40 18 -20 4 -36 11 -36 15 0 5 -3 23 -6 41 -6 28 -5 32 12 27 10 -3 60 -14
109 -23z m212 -48 c3 -2 99 -332 139 -473 l23 -83 -29 0 c-26 0 -30 5 -40 43
-20 80 -26 87 -70 87 l-40 0 0 -56 0 -55 -32 3 c-28 3 -33 7 -31 28 1 14 7
131 13 260 6 129 13 241 16 248 3 11 37 9 51 -2z m203 -37 c64 -14 104 -47
126 -105 23 -62 24 -156 1 -181 -16 -19 -15 -25 26 -139 l44 -119 -25 -3 c-31
-4 -35 1 -73 118 -53 159 -78 163 -61 8 6 -56 9 -105 7 -109 -7 -11 -55 2 -55
16 0 6 -13 119 -30 250 -16 131 -30 246 -30 256 0 22 3 22 70 8z m290 -66 c52
-30 67 -74 89 -261 21 -187 19 -210 -24 -238 -21 -14 -30 -15 -56 -4 -60 25
-79 72 -100 247 -24 203 -24 228 1 253 24 24 53 25 90 3z"/>
<path d="M1720 1238 c0 -29 -3 -69 -6 -89 -6 -33 -4 -37 21 -43 15 -4 30 -5
32 -2 6 5 -37 186 -43 186 -2 0 -4 -24 -4 -52z"/>
<path d="M1934 1287 c3 -33 6 -68 6 -79 0 -25 47 -43 67 -26 12 9 14 25 9 61
-7 61 -27 93 -62 100 l-27 5 7 -61z"/>
<path d="M2178 1286 c-12 -11 -11 -37 4 -167 9 -85 22 -164 27 -176 12 -26 49
-31 57 -8 6 14 -22 292 -32 328 -8 26 -40 40 -56 23z"/>
<path d="M129 1845 c-3 -3 0 -42 8 -87 12 -79 29 -186 108 -688 46 -296 41
-278 73 -284 15 -3 146 -19 292 -36 146 -16 384 -43 530 -60 146 -17 362 -42
480 -55 118 -14 313 -36 434 -50 298 -34 275 -36 265 26 -5 28 -10 53 -11 54
-3 3 -120 17 -533 65 -143 16 -395 45 -560 64 -165 19 -403 47 -530 61 -126
14 -235 28 -241 30 -5 1 -15 36 -22 76 -6 41 -27 175 -47 299 -20 124 -47 297
-60 384 -13 88 -28 162 -32 166 -4 4 -35 13 -68 20 -33 7 -65 14 -71 17 -5 2
-12 1 -15 -2z"/>
</g>
</svg>
